<?xml version="1.0" encoding="UTF-8"?>
<svg id="Layer_1" data-name="Layer 1" xmlns="http://www.w3.org/2000/svg" viewBox="0 0 1200 264.5337">
  <defs>
    <style>
      .cls-1 {
        fill: #f69220;
      }

      .cls-2 {
        fill: #f9a31a;
      }

      .cls-3 {
        fill: #00a5df;
      }

      .cls-4 {
        fill: #fff;
      }

      .cls-5 {
        fill: #ee4623;
      }
    </style>
  </defs>
  <g>
    <g>
      <g>
        <path class="cls-3" d="M237.1074,154.9316l-1.5596-11.3838-4.4995.6162-.2842-2.0771,11.2876-1.5459.2842,2.0771-4.4805.6138,1.5596,11.3838-2.3076.3159Z"/>
        <path class="cls-3" d="M243.6826,147.1353c-.5586-4.0762,1.6206-7.333,5.7554-7.8994,3.9995-.5479,7.126,1.8247,7.7056,6.0562.5635,4.1152-1.6289,7.4131-5.7832,7.9819-3.9805.5454-7.0903-1.8506-7.6777-6.1387ZM254.7974,145.6133c-.4111-3-2.3833-4.6689-5.0747-4.3003-2.6738.3662-4.1055,2.501-3.6943,5.501.416,3.0381,2.3721,4.7305,5.0454,4.3643,2.6914-.3687,4.1396-2.5269,3.7236-5.5649Z"/>
        <path class="cls-3" d="M260.2476,151.7622l-1.8438-13.4609,2.8462-.3896,5.6753,10.1152,2.728-11.2666,2.8457-.3896,1.8438,13.4609-2.3076.3159-1.2988-9.4795-2.4316,9.9907-2.019.2764-5.0264-8.9497,1.2959,9.4609-2.3076.3159Z"/>
        <path class="cls-3" d="M275.6123,142.7622c-.5586-4.0762,1.6201-7.3335,5.7549-7.8999,4-.5479,7.126,1.8247,7.7056,6.0562.5635,4.1152-1.6294,7.4131-5.7827,7.9819-3.9805.5454-7.0903-1.8501-7.6777-6.1382ZM286.7266,141.2397c-.4111-3-2.3828-4.6689-5.0752-4.3003-2.6729.3662-4.1045,2.5015-3.6934,5.5015.416,3.0381,2.3721,4.73,5.0449,4.3638,2.6919-.3687,4.1396-2.5269,3.7236-5.5649Z"/>
        <path class="cls-3" d="M292.1768,147.3887l-1.8438-13.4609,6.5762-.9004c2.5576-.3506,4.54.9648,4.8481,3.2158.2266,1.6533-.7593,3.1792-2.4844,3.8853.9082.0527,1.6167.5029,2.0571,1.2861l2.3647,4.397-2.4609.3369-2.1401-4.0356c-.2656-.5127-.748-.7402-1.3633-.6558l-3.9414.5396.6953,5.0762-2.3076.3159ZM293.5098,139.9575l4.1533-.5688c1.4229-.1948,2.0142-1.3135,1.8535-2.4863-.1685-1.2305-1.1309-1.9614-2.4385-1.7822l-4.1533.5688.585,4.2686Z"/>
        <path class="cls-3" d="M305.5444,145.5581l-1.8438-13.4609,6.5762-.9009c2.5576-.3501,4.5405.9648,4.8486,3.2158.2266,1.6533-.7598,3.1792-2.4854,3.8853.9087.0527,1.6167.5029,2.0571,1.2861l2.3657,4.397-2.4614.3369-2.1396-4.0356c-.2666-.5127-.748-.7402-1.3633-.6558l-3.9424.54.6958,5.0762-2.3076.3159ZM306.8774,138.127l4.1538-.5693c1.4224-.1948,2.0137-1.3135,1.853-2.4863-.1685-1.2305-1.1304-1.9609-2.438-1.7822l-4.1538.5693.585,4.2686Z"/>
        <path class="cls-3" d="M317.1777,137.0693c-.5586-4.0762,1.6206-7.3335,5.7549-7.8999,3.9995-.5479,7.1265,1.8247,7.7061,6.0562.5635,4.1152-1.6299,7.4131-5.7832,7.9819-3.9805.5454-7.0903-1.8501-7.6777-6.1382ZM328.292,135.5469c-.4111-3-2.3828-4.6689-5.0752-4.3003-2.6729.3662-4.1045,2.501-3.6934,5.501.416,3.0381,2.3721,4.7305,5.0449,4.3643,2.6924-.3687,4.1396-2.5269,3.7236-5.5649Z"/>
        <path class="cls-3" d="M336.165,141.3643l-5.6514-12.9395,2.4033-.3296,4.1909,9.7114,1.3667-10.4727,2.1538-.2949,4.1543,9.7363,1.4224-10.5,2.4033-.3291-1.9634,13.9824-2.519.3447-4.1084-9.6836-1.3335,10.4292-2.519.3452Z"/>
        <path class="cls-3" d="M352.124,131.2646l-1.8047-.3018,1.1987-6.9824,1.9033.3076-1.2974,6.9766Z"/>
        <path class="cls-3" d="M355.2734,134.5156l2.3652-.3242c.4121,1.4321,1.8843,2.1704,4.0381,1.8755,1.7505-.2397,2.5815-1.0381,2.4258-2.1738-.1445-1.0566-1.0298-1.3662-2.3926-1.5923l-2.2812-.3521c-1.6436-.2656-4.1997-.6206-4.5605-3.2544-.3027-2.2119,1.3027-4.0776,4.2837-4.4858,3.25-.4448,5.5659,1.0205,6.1289,3.8423l-2.3457.3213c-.3042-1.5059-1.5596-2.3721-3.5781-2.0952-1.481.2026-2.3584.9497-2.2163,1.9878.1606,1.1738,1.3735,1.3013,2.7393,1.5449l2.125.3555c1.9854.335,4.0801.7544,4.4277,3.2925.3345,2.4414-1.3975,4.2466-4.4736,4.668-3.5381.4849-6.1455-.9609-6.6855-3.6099Z"/>
      </g>
      <g>
        <path class="cls-2" d="M215.4971,131.6284l-3.5957-26.2549,12.4521-1.7056c4.7637-.6523,8.4712,1.5908,9.0107,5.5293.4111,3.001-1.4458,5.623-4.5635,6.853,3.7148.064,6.3799,2.2212,6.8369,5.5601.5752,4.2002-2.4746,7.5986-7.4634,8.2817l-12.6772,1.7363ZM217.8647,115.7144l7.8389-1.0737c2.2505-.3081,3.583-2.0195,3.2954-4.1201-.2676-1.9502-1.8828-3.1426-3.9082-2.8652l-8.1768,1.1196.9507,6.9395ZM219.4058,126.9653l8.4395-1.1558c2.25-.3081,3.4165-2.1104,3.1294-4.21-.293-2.1387-2.1484-3.4131-4.5488-3.084l-8.0269,1.0991,1.0068,7.3506Z"/>
        <path class="cls-2" d="M239.4268,119.4478l-2.3994-17.5156,4.501-.6162,2.3833,17.4023c.4624,3.376,3.4629,4.9141,7.1382,4.4106,3.7134-.5088,6.1895-2.7969,5.7271-6.1729l-2.3833-17.4023,4.5-.6162,2.3994,17.5156c.7192,5.251-2.8145,9.8604-9.6401,10.7954-6.7515.9248-11.4966-2.4756-12.2261-7.8008Z"/>
        <path class="cls-2" d="M267.7368,124.4736l-3.5962-26.2549,4.501-.6167,3.5957,26.2549-4.5005.6167Z"/>
        <path class="cls-2" d="M277.6748,123.1123l-3.5957-26.2549,4.5-.6167,3.0415,22.2031,13.3896-1.8335.5547,4.0518-17.8901,2.4502Z"/>
        <path class="cls-2" d="M299.5376,120.1177l-3.5962-26.2549,9.4521-1.2944c7.8018-1.0684,13.9697,3.5127,15.0176,11.1641,1.0737,7.8389-3.6201,14.0225-11.4214,15.0908l-9.4521,1.2944ZM303.4839,115.4497l5.251-.7192c4.876-.668,7.77-4.9224,7.0254-10.3608-.7036-5.1387-4.6357-8.4595-9.5117-7.7915l-5.251.7192,2.4863,18.1523Z"/>
        <path class="cls-2" d="M326.5015,116.4248l-3.5962-26.2549,4.501-.6167,3.5962,26.2549-4.501.6167Z"/>
        <path class="cls-2" d="M336.4395,115.0635l-3.5957-26.2549,4.876-.668,15.7217,17.9844-2.707-19.7666,4.501-.6167,3.5957,26.2549-4.876.668-15.7217-17.9834,2.707,19.7656-4.501.6167Z"/>
        <path class="cls-2" d="M361.2949,98.2085c-1.0894-7.9512,3.1611-14.3027,11.2998-15.4175,6.8267-.9351,12.0693,2.4727,14.104,8.958l-4.6133.6318c-1.3901-4.0127-4.7725-6.1104-8.936-5.54-5.2505.7192-8.0479,4.8467-7.2412,10.7354.8164,5.9639,4.6631,9.2197,9.6895,8.5312,4.0879-.5596,6.3862-3.5864,5.8726-7.3374l-7.9141,1.0835-.519-3.7881,8.9648-1.2275c3.375-.4624,5.4443.9736,5.8809,4.1611l1.2124,8.8525-3.9756.5444-1.0991-8.0273-.0752.0103c.1943,5.3228-2.7993,9.1333-8.2378,9.8784-7.3516,1.0068-13.2671-3.6846-14.4126-12.0488Z"/>
      </g>
      <g>
        <path class="cls-2" d="M245.4756,190.2837l-11.0225-25.2378,4.688-.6421,8.1733,18.9414,2.6665-20.4263,4.2002-.5752,8.104,18.9888,2.7729-20.4785,4.689-.6421-3.8301,27.272-4.9136.6729-8.0127-18.8867-2.6016,20.3408-4.9136.6729Z"/>
        <path class="cls-2" d="M273.1055,173.0493c-1.0894-7.9521,3.1611-14.3032,11.2246-15.4077,7.8018-1.0688,13.8999,3.5601,15.0303,11.812,1.0991,8.0254-3.1787,14.457-11.2803,15.5669-7.7637,1.0635-13.8291-3.6079-14.9746-11.9712ZM294.7842,170.0801c-.8018-5.8516-4.6479-9.1079-9.8994-8.3887-5.2134.7139-8.0049,4.8799-7.2036,10.7314.8115,5.9248,4.6255,9.2236,9.8389,8.5098,5.2515-.7192,8.0757-4.9277,7.2642-10.8525Z"/>
        <path class="cls-2" d="M305.4023,182.0757l-3.5962-26.2549,12.8267-1.7568c4.9888-.6831,8.8555,1.8823,9.457,6.271.4414,3.2246-1.4814,6.2007-4.8467,7.5791,1.7715.1016,3.1533.9829,4.0117,2.5068l4.6138,8.5776-4.8008.6577-4.1733-7.873c-.519-.9995-1.459-1.4438-2.6592-1.2793l-7.6885,1.0527,1.3564,9.9023-4.501.6167ZM308.0024,167.5811l8.1011-1.1094c2.7759-.3804,3.9287-2.5635,3.6152-4.8516-.3291-2.4004-2.2051-3.8237-4.7554-3.4746l-8.1011,1.1094,1.1401,8.3262Z"/>
        <path class="cls-2" d="M331.4653,178.5059l-3.5962-26.2549,4.501-.6162,3.0415,22.2031,13.3896-1.834.5547,4.0518-17.8906,2.4502Z"/>
        <path class="cls-2" d="M353.3286,175.5112l-3.5962-26.2549,9.4521-1.2944c7.8008-1.0684,13.9688,3.5127,15.0171,11.1641,1.0737,7.8389-3.6201,14.0225-11.4209,15.0908l-9.4521,1.2944ZM357.2749,170.8433l5.251-.7192c4.876-.668,7.7695-4.9224,7.0249-10.3608-.7041-5.1387-4.6353-8.4595-9.5112-7.7915l-5.251.7192,2.4863,18.1523Z"/>
      </g>
    </g>
    <g>
      <path class="cls-4" d="M548.5723,103.7311c8.3187-5.5963,13.6454-15.2349,13.1814-25.9644-.7088-16.3904-14.6186-29.147-31.009-28.4382-10.8605.4697-20.0973,6.7524-24.9065,15.6952-6.6085-9.3081-17.6353-15.2085-29.864-14.6797l-35.2515,1.5245c-14.2385.6158-26.1176,9.7625-30.9478,22.2803-4.3416-16.0777-19.136-27.2108-36.2032-26.4727-1.112.0481-2.2331.1482-3.3584.3019l-155.5665,21.3097c-9.2479,1.2656-17.4566,5.9798-23.2464,13.2612-6.0967-11.4796-18.3807-19.1032-32.2083-18.5052l-84.9402,3.6734c-19.1593.8286-34.073,17.0905-33.2444,36.2498l1.5245,35.2515c.4974,11.5023,6.5798,21.4427,15.4899,27.3966-8.3191,5.5959-13.6462,15.2351-13.1822,25.9651.7088,16.3904,14.6186,29.147,31.009,28.4382,10.8609-.4697,20.0979-6.7532,24.9071-15.6965,6.6079,9.3087,17.6343,15.2098,29.8635,14.6809l35.2515-1.5245c13.9305-.6024,25.5825-9.3813,30.6049-21.483,5.0202,14.9355,19.2865,25.0606,35.5993,24.3552h.0016c1.112-.0482,2.2315-.1482,3.3567-.3019l155.5665-21.3097c9.6249-1.3184,17.8281-6.3648,23.3962-13.4659,5.7827,12.335,18.5673,20.6545,33.0052,20.0301l84.9402-3.6734c19.1593-.8286,34.073-17.0905,33.2444-36.2498l-1.5245-35.2515c-.4974-11.5021-6.5795-21.4429-15.4891-27.3972Z"/>
      <path class="cls-3" d="M230.4521,222.5239c-15.0596.0005-28.3198-8.8267-34.082-22.582-5.8423,11.4873-17.5146,19.1143-30.4502,19.6738l-35.2515,1.5244c-11.6113.5059-22.6221-4.6099-29.7896-13.75-5.3511,8.7153-14.7681,14.3237-24.981,14.7656-8.2285.3579-16.1167-2.5229-22.2041-8.1055s-9.6357-13.1899-9.9917-21.4209c-.4438-10.2578,4.146-19.8618,12.3462-26.0083-8.7427-6.4365-14.1865-16.5439-14.6543-27.3535l-1.5244-35.2515c-.4136-9.5703,2.9336-18.7388,9.4253-25.8179,6.4922-7.0781,15.3379-11.2046,24.9077-11.6187l84.9399-3.6733c13.186-.5674,25.7202,6.3096,32.4404,17.6431,5.9072-6.7886,13.98-11.168,22.9092-12.3896l155.5669-21.3096c1.1484-.1572,2.314-.2617,3.4639-.3115,16.4053-.7061,30.9668,9.1812,36.4253,24.3647,5.7476-11.7891,17.499-19.6001,30.7251-20.1724l35.2515-1.5244c11.6196-.4907,22.623,4.6099,29.79,13.7495,5.3511-8.7148,14.7686-14.3232,24.9805-14.7651,16.9985-.7305,31.46,12.5093,32.1963,29.5264.4434,10.2573-4.1465,19.8613-12.3457,26.0078,8.7417,6.437,14.1855,16.5444,14.6533,27.354l1.5244,35.2515c.4136,9.5703-2.9336,18.7393-9.4253,25.8179s-15.3374,11.2046-24.9077,11.6187l-84.9399,3.6733c-13.9331.5908-26.8032-6.8413-33.29-19.0894-5.9194,6.8633-14.0234,11.2852-23.0059,12.5156l-155.5664,21.3096c-1.1499.1572-2.3149.2617-3.4629.3115-.5596.0239-1.1182.0361-1.6733.0361ZM196.5874,193.7549l.9673,2.8774c4.9683,14.7808,18.8086,24.2607,34.4712,23.5806,1.0801-.0469,2.1748-.1455,3.2534-.2925l155.5664-21.3096c8.9795-1.23,17.0254-5.8613,22.6543-13.0405l1.1416-1.4561.7852,1.6753c5.7935,12.3584,18.3218,19.959,31.9253,19.3755l84.9399-3.6733c8.9629-.3872,17.2476-4.252,23.3281-10.8823s9.2158-15.2178,8.8281-24.1802l-1.5244-35.2515c-.4595-10.6304-6.0615-20.5366-14.9844-26.5l-1.4116-.9438,1.4087-.9478c8.3721-5.6318,13.1123-14.9668,12.6797-24.9702-.3296-7.6235-3.6167-14.6699-9.2559-19.8413-5.6387-5.1719-12.9478-7.8457-20.5664-7.5083-9.9995.4321-19.1777,6.2173-23.9531,15.0967l-.8691,1.6162-1.062-1.4961c-6.6646-9.3862-17.459-14.7031-28.8862-14.2012l-35.2515,1.5244c-13.356.5771-25.106,9.0371-29.9351,21.5522l-1.2534,3.249-.9077-3.3618c-4.2671-15.7993-18.665-26.3286-35.0547-25.6318-1.0801.0464-2.1743.1445-3.2534.292l-155.5669,21.3096c-8.8989,1.2183-16.8931,5.7788-22.5093,12.8418l-1.0815,1.3604-.8149-1.5347c-6.0713-11.4307-18.3022-18.4595-31.1538-17.9014l-84.9399,3.6733c-18.5327.8013-32.958,16.5303-32.1562,35.0625l1.5244,35.2515c.4595,10.6304,6.0615,20.5366,14.9854,26.4995l1.4116.9438-1.4092.9478c-8.3726,5.6318-13.1128,14.9663-12.6797,24.9707.3291,7.6235,3.6167,14.6699,9.2559,19.8413,5.6387,5.1714,12.9458,7.8447,20.5659,7.5083,10-.4321,19.1787-6.2178,23.9536-15.0977l.8691-1.6162,1.062,1.4961c6.6646,9.3882,17.4683,14.7056,28.8857,14.2021l35.2515-1.5244c12.9766-.561,24.5962-8.7183,29.6025-20.7817l1.1636-2.8037Z"/>
    </g>
    <g>
      <g>
        <path class="cls-2" d="M159.6209,73.9458l-84.9408,3.6734c-13.7213.5934-24.3636,12.1978-23.7702,25.9191l1.5245,35.2514c.5934,13.7213,12.1978,24.3636,25.9191,23.7702l8.0804-.3494c9.2587-.4004,17.0889,6.7806,17.4893,16.0393l.3494,8.0804c.5934,13.7213,12.1978,24.3636,25.9191,23.7702l35.2514-1.5245c13.7213-.5934,24.3636-12.1978,23.7702-25.9191l-3.6734-84.9408c-.5934-13.7213-12.1978-24.3636-25.9191-23.7702Z"/>
        <circle class="cls-2" cx="74.5634" cy="191.2942" r="19.8399"/>
      </g>
      <g>
        <path class="cls-5" d="M446.9728,196.4008l84.9408-3.6734c13.7213-.5934,24.3636-12.1978,23.7702-25.9191l-1.5245-35.2514c-.5934-13.7213-12.1978-24.3636-25.9191-23.7702l-8.0804.3495c-9.2587.4004-17.0889-6.7806-17.4893-16.0393l-.3495-8.0804c-.5934-13.7213-12.1978-24.3636-25.9191-23.7702l-35.2514,1.5245c-13.7213.5934-24.3636,12.1978-23.7702,25.9191l3.6734,84.9408c.5934,13.7213,12.1978,24.3636,25.9191,23.7702Z"/>
        <circle class="cls-5" cx="532.0303" cy="79.0523" r="19.8399"/>
      </g>
      <g>
        <g>
          <rect class="cls-4" x="198.2453" y="67.8358" width="209.1557" height="133.3547" rx="26.0684" ry="26.0684" transform="translate(-15.4526 42.3384) rotate(-7.7993)"/>
          <path class="cls-3" d="M230.4941,212.6123c-5.9004,0-11.6118-1.9116-16.3931-5.541-5.7886-4.3936-9.5195-10.7788-10.5054-17.979l-11.0215-80.4668c-.9863-7.1997.8901-14.3525,5.2837-20.1411,4.394-5.7886,10.7793-9.5195,17.979-10.5059l155.5669-21.3081c7.2017-.9858,14.354.8911,20.1416,5.2842,5.7886,4.394,9.5195,10.7793,10.5054,17.9795l11.0215,80.4663c.9863,7.1997-.8906,14.353-5.2842,20.1416s-10.7788,9.5195-17.979,10.5054l-155.5664,21.3081c-1.2524.1719-2.5054.2568-3.7485.2568ZM375.1475,58.6914c-1.1396,0-2.2866.0776-3.4351.2349l-155.5664,21.3081c-6.5972.9038-12.4478,4.3228-16.4741,9.627-4.0259,5.3037-5.7456,11.8579-4.8418,18.4556l11.0215,80.4668c1.8652,13.6191,14.4614,23.1748,28.0825,21.3159l155.5664-21.3081c13.6187-1.8652,23.1812-14.4629,21.3159-28.0825l-11.0215-80.4663c-.9038-6.5972-4.3223-12.4478-9.6265-16.4741-4.3809-3.3252-9.6147-5.0771-15.021-5.0771Z"/>
        </g>
        <g>
          <path class="cls-3" d="M237.1074,154.9316l-1.5596-11.3838-4.4995.6162-.2842-2.0771,11.2876-1.5459.2842,2.0771-4.4805.6138,1.5596,11.3838-2.3076.3159Z"/>
          <path class="cls-3" d="M243.6826,147.1353c-.5586-4.0762,1.6206-7.333,5.7554-7.8994,3.9995-.5479,7.126,1.8247,7.7056,6.0562.5635,4.1152-1.6289,7.4131-5.7832,7.9819-3.9805.5454-7.0903-1.8506-7.6777-6.1387ZM254.7974,145.6133c-.4111-3-2.3833-4.6689-5.0747-4.3003-2.6738.3662-4.1055,2.501-3.6943,5.501.416,3.0381,2.3721,4.7305,5.0454,4.3643,2.6914-.3687,4.1396-2.5269,3.7236-5.5649Z"/>
          <path class="cls-3" d="M260.2476,151.7622l-1.8438-13.4609,2.8462-.3896,5.6753,10.1152,2.728-11.2666,2.8457-.3896,1.8438,13.4609-2.3076.3159-1.2988-9.4795-2.4316,9.9907-2.019.2764-5.0264-8.9497,1.2959,9.4609-2.3076.3159Z"/>
          <path class="cls-3" d="M275.6123,142.7622c-.5586-4.0762,1.6201-7.3335,5.7549-7.8999,4-.5479,7.126,1.8247,7.7056,6.0562.5635,4.1152-1.6294,7.4131-5.7827,7.9819-3.9805.5454-7.0903-1.8501-7.6777-6.1382ZM286.7266,141.2397c-.4111-3-2.3828-4.6689-5.0752-4.3003-2.6729.3662-4.1045,2.5015-3.6934,5.5015.416,3.0381,2.3721,4.73,5.0449,4.3638,2.6919-.3687,4.1396-2.5269,3.7236-5.5649Z"/>
          <path class="cls-3" d="M292.1768,147.3887l-1.8438-13.4609,6.5762-.9004c2.5576-.3506,4.54.9648,4.8481,3.2158.2266,1.6533-.7593,3.1792-2.4844,3.8853.9082.0527,1.6167.5029,2.0571,1.2861l2.3647,4.397-2.4609.3369-2.1401-4.0356c-.2656-.5127-.748-.7402-1.3633-.6558l-3.9414.5396.6953,5.0762-2.3076.3159ZM293.5098,139.9575l4.1533-.5688c1.4229-.1948,2.0142-1.3135,1.8535-2.4863-.1685-1.2305-1.1309-1.9614-2.4385-1.7822l-4.1533.5688.585,4.2686Z"/>
          <path class="cls-3" d="M305.5444,145.5581l-1.8438-13.4609,6.5762-.9009c2.5576-.3501,4.5405.9648,4.8486,3.2158.2266,1.6533-.7598,3.1792-2.4854,3.8853.9087.0527,1.6167.5029,2.0571,1.2861l2.3657,4.397-2.4614.3369-2.1396-4.0356c-.2666-.5127-.748-.7402-1.3633-.6558l-3.9424.54.6958,5.0762-2.3076.3159ZM306.8774,138.127l4.1538-.5693c1.4224-.1948,2.0137-1.3135,1.853-2.4863-.1685-1.2305-1.1304-1.9609-2.438-1.7822l-4.1538.5693.585,4.2686Z"/>
          <path class="cls-3" d="M317.1777,137.0693c-.5586-4.0762,1.6206-7.3335,5.7549-7.8999,3.9995-.5479,7.1265,1.8247,7.7061,6.0562.5635,4.1152-1.6299,7.4131-5.7832,7.9819-3.9805.5454-7.0903-1.8501-7.6777-6.1382ZM328.292,135.5469c-.4111-3-2.3828-4.6689-5.0752-4.3003-2.6729.3662-4.1045,2.501-3.6934,5.501.416,3.0381,2.3721,4.7305,5.0449,4.3643,2.6924-.3687,4.1396-2.5269,3.7236-5.5649Z"/>
          <path class="cls-3" d="M336.165,141.3643l-5.6514-12.9395,2.4033-.3296,4.1909,9.7114,1.3667-10.4727,2.1538-.2949,4.1543,9.7363,1.4224-10.5,2.4033-.3291-1.9634,13.9824-2.519.3447-4.1084-9.6836-1.3335,10.4292-2.519.3452Z"/>
          <path class="cls-3" d="M352.124,131.2646l-1.8047-.3018,1.1987-6.9824,1.9033.3076-1.2974,6.9766Z"/>
          <path class="cls-3" d="M355.2734,134.5156l2.3652-.3242c.4121,1.4321,1.8843,2.1704,4.0381,1.8755,1.7505-.2397,2.5815-1.0381,2.4258-2.1738-.1445-1.0566-1.0298-1.3662-2.3926-1.5923l-2.2812-.3521c-1.6436-.2656-4.1997-.6206-4.5605-3.2544-.3027-2.2119,1.3027-4.0776,4.2837-4.4858,3.25-.4448,5.5659,1.0205,6.1289,3.8423l-2.3457.3213c-.3042-1.5059-1.5596-2.3721-3.5781-2.0952-1.481.2026-2.3584.9497-2.2163,1.9878.1606,1.1738,1.3735,1.3013,2.7393,1.5449l2.125.3555c1.9854.335,4.0801.7544,4.4277,3.2925.3345,2.4414-1.3975,4.2466-4.4736,4.668-3.5381.4849-6.1455-.9609-6.6855-3.6099Z"/>
        </g>
        <g>
          <path class="cls-2" d="M215.4971,131.6284l-3.5957-26.2549,12.4521-1.7056c4.7637-.6523,8.4712,1.5908,9.0107,5.5293.4111,3.001-1.4458,5.623-4.5635,6.853,3.7148.064,6.3799,2.2212,6.8369,5.5601.5752,4.2002-2.4746,7.5986-7.4634,8.2817l-12.6772,1.7363ZM217.8647,115.7144l7.8389-1.0737c2.2505-.3081,3.583-2.0195,3.2954-4.1201-.2676-1.9502-1.8828-3.1426-3.9082-2.8652l-8.1768,1.1196.9507,6.9395ZM219.4058,126.9653l8.4395-1.1558c2.25-.3081,3.4165-2.1104,3.1294-4.21-.293-2.1387-2.1484-3.4131-4.5488-3.084l-8.0269,1.0991,1.0068,7.3506Z"/>
          <path class="cls-2" d="M239.4268,119.4478l-2.3994-17.5156,4.501-.6162,2.3833,17.4023c.4624,3.376,3.4629,4.9141,7.1382,4.4106,3.7134-.5088,6.1895-2.7969,5.7271-6.1729l-2.3833-17.4023,4.5-.6162,2.3994,17.5156c.7192,5.251-2.8145,9.8604-9.6401,10.7954-6.7515.9248-11.4966-2.4756-12.2261-7.8008Z"/>
          <path class="cls-2" d="M267.7368,124.4736l-3.5962-26.2549,4.501-.6167,3.5957,26.2549-4.5005.6167Z"/>
          <path class="cls-2" d="M277.6748,123.1123l-3.5957-26.2549,4.5-.6167,3.0415,22.2031,13.3896-1.8335.5547,4.0518-17.8901,2.4502Z"/>
          <path class="cls-2" d="M299.5376,120.1177l-3.5962-26.2549,9.4521-1.2944c7.8018-1.0684,13.9697,3.5127,15.0176,11.1641,1.0737,7.8389-3.6201,14.0225-11.4214,15.0908l-9.4521,1.2944ZM303.4839,115.4497l5.251-.7192c4.876-.668,7.77-4.9224,7.0254-10.3608-.7036-5.1387-4.6357-8.4595-9.5117-7.7915l-5.251.7192,2.4863,18.1523Z"/>
          <path class="cls-2" d="M326.5015,116.4248l-3.5962-26.2549,4.501-.6167,3.5962,26.2549-4.501.6167Z"/>
          <path class="cls-2" d="M336.4395,115.0635l-3.5957-26.2549,4.876-.668,15.7217,17.9844-2.707-19.7666,4.501-.6167,3.5957,26.2549-4.876.668-15.7217-17.9834,2.707,19.7656-4.501.6167Z"/>
          <path class="cls-2" d="M361.2949,98.2085c-1.0894-7.9512,3.1611-14.3027,11.2998-15.4175,6.8267-.9351,12.0693,2.4727,14.104,8.958l-4.6133.6318c-1.3901-4.0127-4.7725-6.1104-8.936-5.54-5.2505.7192-8.0479,4.8467-7.2412,10.7354.8164,5.9639,4.6631,9.2197,9.6895,8.5312,4.0879-.5596,6.3862-3.5864,5.8726-7.3374l-7.9141,1.0835-.519-3.7881,8.9648-1.2275c3.375-.4624,5.4443.9736,5.8809,4.1611l1.2124,8.8525-3.9756.5444-1.0991-8.0273-.0752.0103c.1943,5.3228-2.7993,9.1333-8.2378,9.8784-7.3516,1.0068-13.2671-3.6846-14.4126-12.0488Z"/>
        </g>
        <g>
          <path class="cls-2" d="M245.4756,190.2837l-11.0225-25.2378,4.688-.6421,8.1733,18.9414,2.6665-20.4263,4.2002-.5752,8.104,18.9888,2.7729-20.4785,4.689-.6421-3.8301,27.272-4.9136.6729-8.0127-18.8867-2.6016,20.3408-4.9136.6729Z"/>
          <path class="cls-2" d="M273.1055,173.0493c-1.0894-7.9521,3.1611-14.3032,11.2246-15.4077,7.8018-1.0688,13.8999,3.5601,15.0303,11.812,1.0991,8.0254-3.1787,14.457-11.2803,15.5669-7.7637,1.0635-13.8291-3.6079-14.9746-11.9712ZM294.7842,170.0801c-.8018-5.8516-4.6479-9.1079-9.8994-8.3887-5.2134.7139-8.0049,4.8799-7.2036,10.7314.8115,5.9248,4.6255,9.2236,9.8389,8.5098,5.2515-.7192,8.0757-4.9277,7.2642-10.8525Z"/>
          <path class="cls-2" d="M305.4023,182.0757l-3.5962-26.2549,12.8267-1.7568c4.9888-.6831,8.8555,1.8823,9.457,6.271.4414,3.2246-1.4814,6.2007-4.8467,7.5791,1.7715.1016,3.1533.9829,4.0117,2.5068l4.6138,8.5776-4.8008.6577-4.1733-7.873c-.519-.9995-1.459-1.4438-2.6592-1.2793l-7.6885,1.0527,1.3564,9.9023-4.501.6167ZM308.0024,167.5811l8.1011-1.1094c2.7759-.3804,3.9287-2.5635,3.6152-4.8516-.3291-2.4004-2.2051-3.8237-4.7554-3.4746l-8.1011,1.1094,1.1401,8.3262Z"/>
          <path class="cls-2" d="M331.4653,178.5059l-3.5962-26.2549,4.501-.6162,3.0415,22.2031,13.3896-1.834.5547,4.0518-17.8906,2.4502Z"/>
          <path class="cls-2" d="M353.3286,175.5112l-3.5962-26.2549,9.4521-1.2944c7.8008-1.0684,13.9688,3.5127,15.0171,11.1641,1.0737,7.8389-3.6201,14.0225-11.4209,15.0908l-9.4521,1.2944ZM357.2749,170.8433l5.251-.7192c4.876-.668,7.7695-4.9224,7.0249-10.3608-.7041-5.1387-4.6353-8.4595-9.5112-7.7915l-5.251.7192,2.4863,18.1523Z"/>
        </g>
      </g>
    </g>
  </g>
  <rect class="cls-1" x="640.4045" y="72.3858" width="503.9405" height="130.321" rx="25.8158" ry="25.8158" transform="translate(12.7606 -66.2444) rotate(4.2819)"/>
  <g>
    <path class="cls-4" d="M675.5635,94.8955l2.8311.2119c.1221,1.769,1.6504,2.9946,4.2295,3.188,2.0947.1567,3.2607-.5669,3.3623-1.9243.0947-1.2666-.8574-1.8472-2.3867-2.4478l-2.5654-.979c-1.8457-.7168-4.7305-1.7666-4.4941-4.9204.1982-2.6475,2.5303-4.418,6.0996-4.1509,3.8906.2915,6.2197,2.5723,6.1719,5.9956l-2.8086-.2104c.0205-1.8271-1.2236-3.1475-3.6406-3.3286-1.7725-.1323-2.9775.5181-3.0713,1.7612-.1045,1.4043,1.2734,1.855,2.7998,2.4785l2.3838.9424c2.2266.8843,4.5586,1.8921,4.3311,4.9312-.2188,2.9238-2.6826,4.5913-6.3652,4.3159-4.2363-.3174-6.9102-2.6475-6.877-5.8633Z"/>
    <path class="cls-4" d="M690.4453,94.9219c.3018-4.0283,3.1357-6.3169,6.543-6.062,3.4531.2588,5.5742,2.8486,5.3467,6.813l-.0488.645-9.1621-.686c.0234,2.1548,1.25,3.7051,3.3223,3.8604,1.4043.105,2.5156-.5059,3.0215-1.6953l2.6475.1982c-.8193,2.5781-2.9863,4.0132-5.8643,3.7979-3.7285-.2793-6.085-3.1411-5.8057-6.8711ZM699.6211,94.1968c-.2148-1.7749-1.2178-2.915-2.8057-3.0342-1.6113-.1206-2.8877.8491-3.4336,2.5669l6.2393.4673Z"/>
    <path class="cls-4" d="M703.7969,95.9214c.3018-4.0283,3.1357-6.3169,6.543-6.062,3.4531.2588,5.5732,2.8486,5.3467,6.8135l-.0488.645-9.1631-.686c.0244,2.1543,1.251,3.7051,3.3232,3.8599,1.4043.1055,2.5156-.5059,3.0215-1.6948l2.6475.1982c-.8193,2.5776-2.9863,4.0127-5.8643,3.7974-3.7285-.2793-6.085-3.1411-5.8057-6.8711ZM712.9727,95.1963c-.2148-1.7749-1.2178-2.915-2.8057-3.0342-1.6123-.1206-2.8877.8491-3.4336,2.5669l6.2393.4673Z"/>
    <path class="cls-4" d="M722.001,108.0034l.1729-2.3018,2.21.1655c1.0127.0757,1.5928-.251,1.8711-.8789l.5801-1.2529-.5068-.0376-3.9209-12.564,2.9248.2192,2.8057,9.5166,4.124-8.998,2.8311.2119-6.3896,13.8989c-.7432,1.5879-2.0986,2.3657-4.4922,2.1865l-2.21-.1655Z"/>
    <path class="cls-4" d="M735.1494,98.1069c.2979-3.9829,3.1689-6.1523,6.7373-5.8853,3.9365.2949,6.0312,3.23,5.7627,6.8213-.3086,4.1211-3.0918,6.3667-6.7295,6.0942-3.959-.2964-6.0537-3.2544-5.7705-7.0303ZM744.8867,98.8359c.1807-2.417-1.0566-4.1304-3.1748-4.2891s-3.6201,1.3496-3.8008,3.7666c-.2002,2.6709,1.1797,4.3486,3.1826,4.4985,2.1875.1636,3.6094-1.5356,3.793-3.9761Z"/>
    <path class="cls-4" d="M749.4023,101.2808l.6055-8.0806,2.7158.2036-.5967,7.9653c-.1035,1.3813.8027,2.2593,2.2539,2.3682,1.8643.1396,3.0615-.998,3.2021-2.5615l.5518-7.3667,2.7158.2031-.9141,12.2017-2.1865-.1636-.0742-1.7886c-.8125,1.2588-2.3223,1.9561-4.0264,1.8286-2.9014-.2173-4.4453-2.1621-4.2471-4.8096Z"/>
    <path class="cls-4" d="M762.6973,106.4204l.9141-12.2017,2.1875.1641.1426,2.418c.9072-1.5991,2.3994-2.3672,4.4258-2.2153l.46.0342-.1982,2.6479-.46-.0342c-2.5322-.1895-4.1309,1.0566-4.3037,3.3584l-.4512,6.0322-2.7168-.2036Z"/>
    <path class="cls-4" d="M776.5889,104.0576c.2363-2.8535,3.1133-3.2402,5.5049-3.3384,1.8574-.0693,3.2217-.0366,3.3174-1.002.0664-1.1992-.7959-2.0503-2.3613-2.1675-1.6123-.1211-2.8291.6675-3.085,1.9219l-2.7402-.2051c.4473-2.5601,2.8848-4.1831,6.0381-3.9473,3.292.2466,4.9766,2.1782,4.7822,4.7803l-.4141,5.5254c-.0254.3452.1445.543.5576.5742l.668.0498-.1582,2.1182-1.2891-.0962c-1.2432-.0933-1.9648-.6567-2.1045-1.5928-.0361-.1187-.0693-.2837-.083-.4233-.8115,1.2593-2.2051,1.9414-4.2764,1.7861-2.8096-.21-4.5498-1.7065-4.3564-3.9834ZM785.1279,103.4927l.1279-1.7036c-.5146.6797-1.7012.7529-3.002.8174-1.5342.0703-2.8154.1831-2.9111,1.4717-.0801,1.0591.7266,1.7451,2.3145,1.8638,1.8652.1396,3.3486-.8145,3.4707-2.4492Z"/>
    <path class="cls-4" d="M793.8076,108.75l-4.1748-12.5825,2.9473.2202,2.8945,9.269,4.2197-8.7363,2.9463.2207-6.001,11.8208-2.832-.2119Z"/>
    <path class="cls-4" d="M802.5547,106.0015c.2363-2.853,3.1133-3.2397,5.5049-3.3379,1.8574-.0693,3.2217-.0371,3.3174-1.002.0664-1.1997-.7949-2.0508-2.3613-2.168-1.6113-.1206-2.8281.6675-3.084,1.9224l-2.7402-.2051c.4473-2.5601,2.8838-4.1831,6.0371-3.9473,3.293.2466,4.9775,2.1782,4.7832,4.7803l-.4141,5.5254c-.0254.3452.1436.543.5576.5742l.668.0498-.1582,2.1182-1.2891-.0967c-1.2441-.0928-1.9658-.6562-2.1045-1.5928-.0371-.1187-.0703-.2837-.084-.4229-.8115,1.2588-2.2051,1.9414-4.2764,1.7861-2.8096-.2104-4.5488-1.7065-4.3564-3.9839ZM811.0938,105.437l.1279-1.7036c-.5137.6792-1.7002.7524-3.001.8174-1.5342.0703-2.8154.1826-2.9111,1.4717-.0801,1.0586.7256,1.7446,2.3145,1.8638,1.8643.1396,3.3477-.8145,3.4697-2.4492Z"/>
    <path class="cls-4" d="M821.5459,110.8267c-2.6475-.1982-3.9766-1.6177-3.7959-4.0352l.4619-6.1699-2.1406-.1602.1729-2.3018,2.1406.1602.3115-4.167,2.7168.2036-.3115,4.167,3.1543.2363-.1729,2.3018-3.1543-.2363-.4482,5.9858c-.0771,1.0361.4102,1.6514,1.4229,1.7271l1.3809.1035-.1729,2.3022-1.5654-.1172Z"/>
    <path class="cls-4" d="M824.9746,107.6802c.2363-2.853,3.1133-3.2397,5.5049-3.3384,1.8574-.0688,3.2217-.0366,3.3174-1.0015.0664-1.1997-.7949-2.0508-2.3613-2.168-1.6113-.1206-2.8281.6675-3.084,1.9224l-2.7412-.2051c.4482-2.5605,2.8848-4.1836,6.0381-3.9473,3.293.2466,4.9766,2.1782,4.7822,4.7803l-.4141,5.5254c-.0254.3452.1445.543.5586.5742l.668.0498-.1582,2.1182-1.29-.0967c-1.2432-.0928-1.9648-.6562-2.1035-1.5928-.0371-.1187-.0703-.2837-.084-.4229-.8115,1.2588-2.2051,1.9409-4.2764,1.7861-2.8096-.2104-4.5498-1.7065-4.3564-3.9839ZM833.5137,107.1157l.1279-1.7036c-.5146.6792-1.7002.7524-3.002.8174-1.5332.0698-2.8154.1826-2.9111,1.4712-.0801,1.0591.7266,1.7451,2.3145,1.8638,1.8652.1396,3.3486-.814,3.4707-2.4487Z"/>
    <path class="cls-4" d="M838.8779,112.1245l.9141-12.2017,2.1865.1636.1426,2.4185c.9072-1.5991,2.4004-2.3672,4.4258-2.2158l.4609.0347-.1982,2.6479-.4609-.0347c-2.5312-.1895-4.1299,1.0571-4.3018,3.3589l-.4521,6.0322-2.7168-.2036Z"/>
    <path class="cls-4" d="M852.9336,106.9487c.2998-4.0059,3.1709-6.1753,6.7168-5.9097,3.3379.25,5.4414,2.4678,5.4434,5.5244l-2.6699-.2002c-.1279-1.6997-1.2441-2.8716-2.9717-3.001-2.0713-.1553-3.5703,1.3071-3.7559,3.7935-.2002,2.6709,1.2041,4.3271,3.2305,4.4785,1.6572.1245,2.8877-.8486,3.2949-2.5776l2.6699.2002c-.5586,3.1294-2.8936,4.9458-6.1387,4.7026-3.9834-.2979-6.0957-3.3271-5.8193-7.0107Z"/>
    <path class="cls-4" d="M866.4717,107.9395c.2979-3.9829,3.168-6.1523,6.7373-5.8853,3.9365.2944,6.0312,3.2295,5.7627,6.8208-.3086,4.1211-3.0928,6.3672-6.7295,6.0947-3.96-.2964-6.0537-3.2544-5.7705-7.0303ZM876.209,108.6685c.1807-2.417-1.0566-4.1304-3.1748-4.2891s-3.6201,1.3496-3.8008,3.7666c-.2002,2.6709,1.1797,4.3486,3.1826,4.4985,2.1875.1636,3.6094-1.5356,3.793-3.9761Z"/>
    <path class="cls-4" d="M880.6221,115.25l.9141-12.2017,2.1875.1636.0791,1.7192c.8496-1.1401,2.4121-1.9033,4.2295-1.7671,1.75.1309,3.0205,1.106,3.5596,2.5586.7871-1.2373,2.4268-2.1104,4.3613-1.9658,2.5547.1914,4.0527,2.1328,3.8564,4.7573l-.6084,8.127-2.7393-.2051.5986-7.9888c.1016-1.3584-.6621-2.2954-1.9736-2.3936-1.8652-.1396-3.1318.9922-3.2754,2.6025l-.5537,7.3901-2.7158-.2036.5986-7.9888c.1016-1.3584-.6611-2.2954-1.9746-2.3936-1.8643-.1396-3.1299.9927-3.2734,2.603l-.5537,7.3896-2.7168-.2031Z"/>
    <path class="cls-4" d="M901.6084,110.7324c.3018-4.0283,3.1367-6.3174,6.5439-6.062,3.4531.2583,5.5732,2.8481,5.3467,6.813l-.0488.645-9.1631-.686c.0244,2.1543,1.251,3.7051,3.3232,3.8604,1.4043.105,2.5156-.5059,3.0215-1.6953l2.6475.1982c-.8193,2.5781-2.9863,4.0127-5.8643,3.7974-3.7285-.2793-6.0859-3.1411-5.8066-6.8706ZM910.7852,110.0068c-.2148-1.7749-1.2178-2.915-2.8057-3.0337-1.6123-.1206-2.8877.8486-3.4336,2.5669l6.2393.4668Z"/>
    <path class="cls-4" d="M925.8203,118.6343c-2.6475-.1982-3.9766-1.6177-3.7959-4.0352l.4619-6.1699-2.1406-.1606.1729-2.3018,2.1406.1606.3115-4.167,2.7168.2031-.3115,4.167,3.1543.2363-.1729,2.3018-3.1543-.2363-.4482,5.9858c-.0771,1.0361.4102,1.6514,1.4229,1.7275l1.3809.1035-.1729,2.3022-1.5654-.1172Z"/>
    <path class="cls-4" d="M929.1631,112.6333c.2979-3.9829,3.168-6.1523,6.7373-5.8853,3.9365.2949,6.0312,3.2295,5.7627,6.8213-.3086,4.1211-3.0918,6.3667-6.7295,6.0942-3.959-.2964-6.0537-3.2544-5.7705-7.0303ZM938.9004,113.3623c.1807-2.417-1.0566-4.1304-3.1748-4.2891s-3.6201,1.3496-3.8008,3.7666c-.2002,2.6709,1.1797,4.3486,3.1826,4.4985,2.1875.1636,3.6094-1.5356,3.793-3.9761Z"/>
    <path class="cls-4" d="M948.5967,120.3394l1.293-17.2666,2.7158.2036-1.293,17.2666-2.7158-.2036Z"/>
    <path class="cls-4" d="M954.1201,120.7529l.9141-12.2017,2.7178.2036-.9141,12.2017-2.7178-.2036ZM954.8984,105.1143c.0742-.9897.8906-1.6924,1.8799-1.6187,1.0137.0762,1.6934.8911,1.6191,1.8809-.0742.9902-.8691,1.7178-1.8828,1.6416-.9893-.0737-1.6904-.9136-1.6162-1.9038Z"/>
    <path class="cls-4" d="M960.958,121.2646l.7412-9.8994-2.1406-.1606.1729-2.3018,2.1406.1606.1133-1.5205c.1729-2.3018,1.624-3.4429,4.1562-3.2534l2.6475.1982-.1729,2.3022-2.4629-.1846c-.875-.0654-1.3955.4048-1.4648,1.3257l-.0996,1.3354,3.5449.2656-.1729,2.3018-3.5449-.2656-.7412,9.8999-2.7168-.2036Z"/>
    <path class="cls-4" d="M968.501,115.7407c.3018-4.0283,3.1357-6.3169,6.543-6.062,3.4531.2588,5.5742,2.8486,5.3467,6.813l-.0488.645-9.1621-.686c.0234,2.1543,1.25,3.7051,3.3223,3.8604,1.4043.105,2.5156-.5059,3.0215-1.6953l2.6475.1982c-.8193,2.5781-2.9863,4.0132-5.8643,3.7974-3.7285-.2788-6.085-3.1406-5.8057-6.8706ZM977.6768,115.0156c-.2148-1.7754-1.2178-2.915-2.8057-3.0342-1.6113-.1206-2.8877.8486-3.4336,2.5669l6.2393.4673Z"/>
    <path class="cls-4" d="M987.2793,123.2358l.9141-12.2017,2.7168.2031-.9141,12.2017-2.7168-.2031ZM988.0576,107.5972c.0742-.9897.8906-1.6929,1.8799-1.6187,1.0127.0757,1.6934.8906,1.6191,1.8804-.0742.9902-.8701,1.7178-1.8828,1.6421-.9893-.0742-1.6904-.9136-1.6162-1.9038Z"/>
    <path class="cls-4" d="M992.7588,123.646l.9141-12.2017,2.1865.1636.0967,1.813c.8535-1.2095,2.4639-1.9922,4.2822-1.856,2.6016.1948,4.1738,2.0728,3.9688,4.812l-.6055,8.0811-2.7158-.2036.5947-7.9429c.1016-1.3584-.7285-2.3237-2.249-2.4375-1.7725-.1328-3.0605.998-3.2021,2.585l-.5537,7.3901-2.7168-.2031Z"/>
    <path class="cls-4" d="M1010.4717,124.9722l7.791-15.6226,2.7627.2065,5.3994,16.6104-2.8545-.2134-1.3359-4.1055-6.9766-.5225-1.9316,3.8604-2.8545-.2134ZM1016.4307,118.9595l4.9961.374-2.0273-6.3101-2.9688,5.936Z"/>
    <path class="cls-4" d="M1028.5186,126.3232l1.207-16.1157,7.874.5894c3.0615.2295,5.04,2.2529,4.8379,4.9468-.1484,1.98-1.6748,3.5093-3.8574,3.9014,1.0439.2866,1.7549.9878,2.0713,2.0073l1.6582,5.7036-2.9473-.2207-1.4844-5.2275c-.1816-.6616-.6855-1.0469-1.4219-1.1021l-4.7197-.353-.4551,6.0776-2.7627-.207ZM1031.9189,118.0122l4.9727.3721c1.7031.1274,2.6709-1.0269,2.7754-2.4312.1104-1.4736-.8271-2.5625-2.3926-2.6797l-4.9727-.3721-.3828,5.1108Z"/>
    <path class="cls-4" d="M1049.2744,121.626c.2979-3.9824,3.1689-6.1523,6.7383-5.8848,3.9365.2944,6.0312,3.2295,5.7627,6.8208-.3086,4.1211-3.0918,6.3667-6.7295,6.0947-3.96-.2964-6.0547-3.2544-5.7715-7.0308ZM1059.0127,122.3555c.1807-2.417-1.0566-4.1309-3.1748-4.2891-2.1182-.1587-3.6201,1.3496-3.8008,3.7666-.2002,2.6709,1.1797,4.3486,3.1826,4.4985,2.1875.1636,3.6104-1.5356,3.793-3.9761Z"/>
    <path class="cls-4" d="M1063.4258,128.937l.9141-12.2017,2.1875.1636.0957,1.813c.8545-1.2095,2.4639-1.9917,4.2822-1.856,2.6025.1948,4.1748,2.0728,3.9697,4.812l-.6055,8.0811-2.7158-.2036.5947-7.9429c.1016-1.3584-.7295-2.3232-2.249-2.4375-1.7725-.1323-3.0615.998-3.2031,2.585l-.5537,7.3906-2.7168-.2036Z"/>
    <path class="cls-4" d="M1087.5391,130.7422c-2.6484-.1982-3.9766-1.6177-3.7959-4.0352l.4619-6.1699-2.1406-.1602.1729-2.3018,2.1406.1602.3115-4.167,2.7168.2036-.3115,4.167,3.1543.2363-.1729,2.3018-3.1543-.2363-.4482,5.9858c-.0771,1.0361.4092,1.6514,1.4219,1.7275l1.3809.103-.1729,2.3022-1.5645-.1172Z"/>
    <path class="cls-4" d="M1091.3594,131.0283l1.293-17.2666,2.7158.2036-.4775,6.377c.9053-.9507,2.3594-1.5137,3.9482-1.3945,2.6016.1948,4.1738,2.0723,3.9688,4.8115l-.6055,8.0811-2.7158-.2036.5947-7.9429c.1016-1.3584-.7295-2.3232-2.1797-2.4321-1.8418-.1377-3.1309.9927-3.2725,2.5801l-.5537,7.3901-2.7158-.2036Z"/>
    <path class="cls-4" d="M1104.6104,125.9316c.3018-4.0283,3.1367-6.3169,6.5439-6.062,3.4531.2588,5.5732,2.8486,5.3467,6.813l-.0488.645-9.1631-.686c.0244,2.1543,1.251,3.7051,3.3232,3.8604,1.4043.105,2.5156-.5059,3.0215-1.6953l2.6475.1982c-.8193,2.5781-2.9863,4.0132-5.8643,3.7974-3.7285-.2788-6.0859-3.1406-5.8066-6.8706ZM1113.7871,125.2065c-.2148-1.7749-1.2178-2.915-2.8057-3.0342-1.6113-.1206-2.8877.8491-3.4336,2.5669l6.2393.4673Z"/>
    <path class="cls-4" d="M676.4834,127.7432l.8984-11.9946c-.8389,1.002-2.1006,1.4634-3.7578,1.3394l-.1846-.0137.1982-2.6475.1846.0137c2.3936.1792,3.7344-.7158,3.874-2.5811l.0176-.23,2.7393.2051-1.207,16.1152-2.7627-.2065Z"/>
    <path class="cls-4" d="M682,122.9937l2.832.2119c.0225,1.877,1.3877,3.1138,3.5283,3.2739,1.9805.1484,3.2969-.749,3.4111-2.2686.1113-1.4961-1.0391-2.5083-3.0645-2.6597l-2.5098-.188.1709-2.2793,2.5098.188c1.6338.1221,2.7012-.8398,2.7959-2.106.1006-1.3354-.9072-2.4067-2.5186-2.5273-1.6348-.1226-2.9561.8213-3.2822,2.3936l-2.8545-.2139c.5537-3.0601,3.0986-4.9067,6.4141-4.6587,3.1318.2344,5.2305,2.1973,5.042,4.707-.1426,1.9106-1.5654,3.2856-3.5303,3.5552,2.3379.6152,3.6523,2.2412,3.4922,4.3828-.2051,2.7393-2.6953,4.4512-6.2637,4.1836-3.7988-.2842-6.2432-2.5737-6.1729-5.9946Z"/>
    <path class="cls-4" d="M699.5049,126.9668l7.5742.5674-.1865,2.4854-10.7051-.8013.1143-1.5195c.4619-6.1699,8.6348-5.2563,8.9395-9.3315.1123-1.4961-.8477-2.5874-2.4355-2.7065-1.6807-.1255-3.0781.9043-3.2803,2.9727l-2.8994-.2173c.5254-3.6182,3.165-5.4805,6.4111-5.2378,3.2227.2417,5.2383,2.3828,5.0195,5.3071-.3975,5.3179-7.6025,4.7783-8.5518,8.4814Z"/>
    <path class="cls-4" d="M709.3848,124.2329l.167-2.2329,10.291.7705-.167,2.2329-10.291-.7705Z"/>
    <path class="cls-4" d="M721.4609,131.1104l.9141-12.2012,2.1875.1636.0791,1.7197c.8496-1.1411,2.4121-1.9038,4.2305-1.7681,1.75.1313,3.0195,1.1064,3.5586,2.5586.7871-1.2368,2.4277-2.1104,4.3613-1.9653,2.5557.1914,4.0527,2.1328,3.8564,4.7573l-.6084,8.1265-2.7393-.2051.5986-7.9888c.1016-1.3579-.6621-2.2949-1.9736-2.3931-1.8652-.1396-3.1309.9927-3.2744,2.6025l-.5537,7.3896-2.7158-.2031.5986-7.9888c.1016-1.3579-.6621-2.2949-1.9746-2.3936-1.8652-.1392-3.1309.9932-3.2744,2.603l-.5537,7.3896-2.7168-.2036Z"/>
    <path class="cls-4" d="M742.4482,126.5933c.3018-4.0288,3.1357-6.3174,6.543-6.062,3.4531.2583,5.5752,2.8486,5.3467,6.8135l-.0479.6445-9.1621-.686c.0225,2.1548,1.249,3.7056,3.3213,3.8604,1.4043.1055,2.5156-.5059,3.0215-1.6948l2.6475.1982c-.8193,2.5776-2.9863,4.0122-5.8643,3.7969-3.7285-.2793-6.085-3.1406-5.8057-6.8706ZM751.624,125.8682c-.2148-1.7754-1.2178-2.9155-2.8057-3.0342-1.6113-.1211-2.8877.8486-3.4336,2.5669l6.2393.4673Z"/>
    <path class="cls-4" d="M761.0566,134.0752c-2.6484-.1982-3.9775-1.6172-3.7969-4.0347l.4619-6.1699-2.1396-.1602.1729-2.3022,2.1396.1602.3115-4.167,2.7178.2036-.3115,4.167,3.1543.2358-.1729,2.3022-3.1543-.2358-.4482,5.9858c-.0771,1.0361.4092,1.6514,1.4219,1.7271l1.3809.1035-.1729,2.3018-1.5645-.1172Z"/>
    <path class="cls-4" d="M764.8301,134.3579l.9141-12.2017,2.1875.1636.1426,2.4185c.9062-1.5986,2.3994-2.3672,4.4258-2.2153l.46.0347-.1982,2.6479-.46-.0347c-2.5322-.1895-4.1309,1.0562-4.3027,3.3584l-.4521,6.0317-2.7168-.2031Z"/>
    <path class="cls-4" d="M773.2939,128.9028c.3018-4.0288,3.1348-6.3174,6.543-6.0625,3.4531.2588,5.5742,2.8491,5.3467,6.814l-.0479.6445-9.1631-.6865c.0234,2.1553,1.25,3.7056,3.3223,3.8608,1.4043.105,2.5156-.5059,3.0215-1.6953l2.6475.1982c-.8193,2.5781-2.9863,4.0127-5.8643,3.7974-3.7285-.2793-6.085-3.1406-5.8057-6.8706ZM782.4697,128.1777c-.2148-1.7754-1.2178-2.9155-2.8057-3.0347-1.6123-.1206-2.8877.8491-3.4336,2.5674l6.2393.4673Z"/>
    <path class="cls-4" d="M807.6523,137.564l.9141-12.2017,2.1875.1636.0791,1.7197c.8496-1.1406,2.4121-1.9038,4.2305-1.7676,1.75.1309,3.0195,1.106,3.5586,2.5586.7871-1.2368,2.4268-2.1104,4.3613-1.9658,2.5557.1914,4.0527,2.1333,3.8564,4.7578l-.6084,8.1265-2.7393-.2051.5986-7.9888c.1016-1.3579-.6621-2.2949-1.9736-2.3931-1.8652-.1396-3.1309.9922-3.2744,2.6025l-.5537,7.3896-2.7168-.2036.5986-7.9888c.1016-1.3579-.6611-2.2949-1.9736-2.3931-1.8652-.1396-3.1309.9927-3.2744,2.603l-.5537,7.3896-2.7168-.2036Z"/>
    <path class="cls-4" d="M828.9326,135.0137l.6055-8.0811,2.7158.2031-.5967,7.9658c-.1035,1.3813.8037,2.2598,2.2539,2.3682,1.8643.1396,3.0615-.998,3.2021-2.5615l.5518-7.3672,2.7158.2031-.9141,12.2017-2.1865-.1636-.0742-1.7881c-.8115,1.2588-2.3223,1.9561-4.0264,1.8281-2.9014-.2173-4.4453-2.1611-4.2471-4.8086Z"/>
    <path class="cls-4" d="M842.2275,140.1528l.9141-12.2017,2.1875.1636.1426,2.4185c.9072-1.5986,2.4004-2.3672,4.4258-2.2153l.46.0347-.1982,2.6479-.46-.0347c-2.5322-.1895-4.1309,1.0562-4.3027,3.3584l-.4521,6.0317-2.7168-.2031Z"/>
    <path class="cls-4" d="M850.6777,137.3823c.2363-2.853,3.1113-3.2397,5.5049-3.3384,1.8555-.0693,3.2197-.0366,3.3154-1.002.0664-1.1992-.7949-2.0503-2.3604-2.1675-1.6123-.1206-2.8291.6675-3.084,1.9219l-2.7402-.2051c.4463-2.5596,2.8828-4.1831,6.0361-3.9473,3.293.2466,4.9775,2.1787,4.7832,4.7803l-.4141,5.5259c-.0254.3452.1445.543.5586.5742l.668.0498-.1592,2.1177-1.2891-.0967c-1.2441-.0928-1.9648-.6562-2.1035-1.5923-.0381-.1191-.0713-.2837-.084-.4229-.8115,1.2583-2.2061,1.9414-4.2773,1.7861-2.8096-.2104-4.5488-1.7065-4.3545-3.9839ZM859.2148,136.8179l.1279-1.7041c-.5137.6792-1.7002.7524-3,.8174-1.5342.0703-2.8154.1831-2.9121,1.4722-.0791,1.0586.7256,1.7441,2.3145,1.8633,1.8643.1396,3.3477-.8145,3.4697-2.4487Z"/>
    <path class="cls-4" d="M864.626,141.8296l1.293-17.2666,2.7158.2036-1.293,17.2666-2.7158-.2036Z"/>
    <path class="cls-4" d="M890.623,140.3735c.2363-2.8535,3.1123-3.2402,5.5049-3.3389,1.8564-.0693,3.2207-.0361,3.3164-1.002.0664-1.1987-.7949-2.0503-2.3613-2.1675-1.6113-.1206-2.8281.668-3.084,1.9219l-2.7402-.2051c.4473-2.5596,2.8838-4.1831,6.0371-3.9473,3.293.2466,4.9766,2.1787,4.7822,4.7803l-.4141,5.5259c-.0254.3452.1455.5435.5596.5742l.668.0498-.1592,2.1177-1.29-.0962c-1.2432-.0933-1.9648-.6567-2.1025-1.5923-.0381-.1191-.0713-.2837-.085-.4233-.8115,1.2588-2.2051,1.9414-4.2764,1.7861-2.8096-.2104-4.5498-1.7065-4.3555-3.9834ZM899.1611,139.8086l.1279-1.7041c-.5146.6797-1.7002.7529-3.001.8174-1.5342.0703-2.8154.1831-2.9121,1.4722-.0791,1.0591.7266,1.7441,2.3145,1.8633,1.8652.1396,3.3486-.8145,3.4707-2.4487Z"/>
    <path class="cls-4" d="M909.6133,145.1982c-2.6475-.1982-3.9766-1.6172-3.7959-4.0347l.4619-6.1699-2.1406-.1606.1729-2.3022,2.1406.1606.3115-4.167,2.7168.2031-.3115,4.167,3.1543.2363-.1729,2.3022-3.1543-.2363-.4482,5.9858c-.0771,1.0361.4092,1.6514,1.4219,1.7275l1.3809.1035-.1729,2.3018-1.5645-.1172Z"/>
    <path class="cls-4" d="M934.5039,147.0615l1.207-16.1152,8.1719.6118c3.293.2466,5.1318,2.5835,4.916,5.4614-.2422,3.2461-2.6475,5.0571-5.6865,4.8296l-5.4092-.4048-.4365,5.8242-2.7627-.207ZM937.8887,138.9575l5.2715.3945c1.7266.1294,2.7207-1.0923,2.8291-2.5425.1143-1.52-.8418-2.6558-2.4307-2.7749l-5.2715-.3945-.3984,5.3174Z"/>
    <path class="cls-4" d="M950.2578,144.0977l.6055-8.0811,2.7168.2031-.5967,7.9658c-.1035,1.3813.8027,2.2593,2.2539,2.3682,1.8633.1396,3.0605-.998,3.2012-2.5615l.5518-7.3672,2.7158.2031-.9141,12.2017-2.1855-.1636-.0752-1.7881c-.8125,1.2588-2.3223,1.9556-4.0264,1.8281-2.9004-.2173-4.4453-2.1611-4.2471-4.8086Z"/>
    <path class="cls-4" d="M963.5527,149.2368l.9141-12.2017,2.1875.1636.0957,1.813c.8545-1.2095,2.4648-1.9922,4.2832-1.856,2.6016.1948,4.1738,2.0723,3.9688,4.812l-.6055,8.0806-2.7158-.2031.5947-7.9424c.1016-1.3584-.7285-2.3237-2.249-2.4375-1.7725-.1328-3.0605.998-3.2021,2.585l-.5537,7.3896-2.7178-.2031Z"/>
    <path class="cls-4" d="M976.7598,150.9199l2.7178.2031c-.0859,1.1514,1.0645,2.1641,2.8828,2.3003,2.165.1621,3.3887-1.043,3.5264-2.8848l.1299-1.7271c-.8701,1.1162-2.2832,1.751-4.0332,1.6201-3.2695-.2451-5.4287-2.9531-5.1562-6.5908.2744-3.6602,2.8145-6.0405,6.0605-5.7974,1.9102.1431,3.3857,1.1567,4.0439,2.5723l.3721-1.8711,2.1641.1621-.8867,11.8335c-.2412,3.2231-2.6787,5.1709-6.3857,4.8931-3.4062-.2549-5.6318-2.0889-5.4355-4.7134ZM986.3369,144.5298c.1729-2.3022-1.0898-3.9941-3.0693-4.1421-1.9805-.1484-3.4561,1.3384-3.6309,3.6636-.1719,2.3022,1.0664,3.9927,3.0469,4.1411,1.9795.1479,3.4814-1.3604,3.6533-3.6626Z"/>
    <path class="cls-4" d="M991.0547,151.9902l2.7178.2031c-.0859,1.1514,1.0645,2.1641,2.8828,2.3003,2.165.1621,3.3887-1.043,3.5264-2.8848l.1299-1.7271c-.8701,1.1162-2.2842,1.751-4.0332,1.6201-3.2695-.2451-5.4277-2.9531-5.1553-6.5908.2744-3.6602,2.8135-6.0405,6.0596-5.7974,1.9102.1431,3.3857,1.1567,4.0439,2.5723l.3721-1.8711,2.1641.1621-.8867,11.8335c-.2412,3.2231-2.6787,5.1709-6.3857,4.8931-3.4062-.2549-5.6318-2.0889-5.4355-4.7134ZM1000.6318,145.6001c.1729-2.3022-1.0898-3.9941-3.0693-4.1421-1.9805-.1484-3.4561,1.3384-3.6309,3.6636-.1719,2.3022,1.0664,3.9927,3.0469,4.1411,1.9795.1479,3.4814-1.3604,3.6533-3.6626Z"/>
    <path class="cls-4" d="M1005.4072,146.1196c.2979-3.9829,3.1689-6.1528,6.7383-5.8857,3.9355.2949,6.0312,3.2305,5.7627,6.8218-.3086,4.1206-3.0928,6.3662-6.7295,6.0938-3.96-.2964-6.0547-3.2544-5.7715-7.0298ZM1015.1455,146.8486c.1807-2.417-1.0557-4.1304-3.1738-4.2891-2.1182-.1582-3.6211,1.3501-3.8018,3.7671-.2002,2.6709,1.1797,4.3481,3.1826,4.498,2.1875.1641,3.6104-1.5356,3.793-3.9761Z"/>
    <path class="cls-4" d="M1019.6055,153.4336l1.293-17.2666,2.7158.2031-1.293,17.2666-2.7158-.2031Z"/>
    <path class="cls-4" d="M1046.2461,155.4282l1.207-16.1152,5.8018.4341c4.7881.3584,7.8809,3.8774,7.5293,8.5737-.3604,4.812-3.9482,7.8999-8.7363,7.5415l-5.8018-.4341ZM1049.1953,153.1489l3.2227.2417c2.9941.2236,5.2627-1.9448,5.5127-5.2832.2363-3.1538-1.6846-5.6357-4.6787-5.8594l-3.2227-.2417-.834,11.1426Z"/>
    <path class="cls-4" d="M1062.4971,156.645l.9141-12.2017,2.7168.2031-.9141,12.2017-2.7168-.2031ZM1063.2754,141.0068c.0742-.9897.8906-1.6929,1.8799-1.6187,1.0127.0757,1.6934.8906,1.6191,1.8804s-.8701,1.7178-1.8828,1.6421c-.9893-.0742-1.6904-.9141-1.6162-1.9038Z"/>
    <path class="cls-4" d="M1067.7402,157.7314l2.7168.2036c-.0859,1.1514,1.0645,2.1641,2.8828,2.3003,2.165.1621,3.3896-1.043,3.5273-2.8848l.1299-1.7271c-.8711,1.1162-2.2842,1.751-4.0342,1.6196-3.2695-.2446-5.4287-2.9526-5.1562-6.5903.2744-3.6602,2.8145-6.0405,6.0605-5.7974,1.9102.1431,3.3857,1.1562,4.0439,2.5723l.3721-1.8711,2.1641.1621-.8867,11.8335c-.2412,3.2231-2.6787,5.1704-6.3857,4.8931-3.4062-.2549-5.6309-2.0889-5.4346-4.7139ZM1077.3174,151.3418c.1729-2.3022-1.0898-3.9941-3.0703-4.1426-1.9805-.1479-3.4561,1.3389-3.6309,3.6641-.1719,2.3022,1.0664,3.9927,3.0469,4.1406,1.9805.1484,3.4824-1.3599,3.6543-3.6621Z"/>
    <path class="cls-4" d="M1082.2705,158.1255l.9141-12.2017,2.7168.2031-.9141,12.2017-2.7168-.2031ZM1083.0488,142.4873c.0742-.9897.8906-1.6929,1.8799-1.6187,1.0127.0757,1.6934.8906,1.6191,1.8804s-.8701,1.7178-1.8828,1.6421c-.9893-.0742-1.6904-.9141-1.6162-1.9038Z"/>
    <path class="cls-4" d="M1093.1836,158.9424c-2.6484-.1982-3.9775-1.6172-3.7969-4.0347l.4619-6.1699-2.1396-.1602.1729-2.3022,2.1396.1602.3115-4.167,2.7178.2036-.3115,4.167,3.1543.2358-.1729,2.3022-3.1543-.2358-.4482,5.9858c-.0771,1.0361.4092,1.6514,1.4219,1.7271l1.3809.1035-.1729,2.3018-1.5645-.1172Z"/>
    <path class="cls-4" d="M1096.6133,155.7964c.2363-2.8535,3.1123-3.2397,5.5049-3.3389,1.8555-.0688,3.2207-.0361,3.3154-1.0015.0674-1.1992-.7949-2.0503-2.3604-2.1675-1.6123-.1206-2.8281.6675-3.084,1.9214l-2.7402-.2051c.4463-2.5596,2.8838-4.1831,6.0371-3.9468,3.292.2466,4.9766,2.1782,4.7822,4.7798l-.4141,5.5264c-.0254.3447.1445.543.5586.5737l.668.0503-.1592,2.1177-1.2891-.0967c-1.2432-.0933-1.9648-.6562-2.1035-1.5923-.0381-.1191-.0703-.2837-.084-.4233-.8115,1.2588-2.2061,1.9414-4.2773,1.7866-2.8096-.2104-4.5488-1.707-4.3545-3.9839ZM1105.1504,155.2314l.1279-1.7041c-.5137.6797-1.7002.7529-3,.8174-1.5342.0703-2.8154.1831-2.9121,1.4722-.0791,1.0591.7256,1.7446,2.3145,1.8633,1.8652.1396,3.3477-.814,3.4697-2.4487Z"/>
    <path class="cls-4" d="M1110.5615,160.2437l1.293-17.2666,2.7158.2031-1.293,17.2666-2.7158-.2031Z"/>
    <path class="cls-4" d="M671.7451,155.166l1.207-16.1157,5.8008.4346c4.7881.3584,7.8818,3.8779,7.5303,8.5742-.3604,4.8115-3.9492,7.8999-8.7373,7.5415l-5.8008-.4346ZM674.6943,152.8867l3.2227.2412c2.9932.2241,5.2617-1.9443,5.5117-5.2827.2363-3.1538-1.6846-5.6357-4.6777-5.8599l-3.2227-.2412-.834,11.1426Z"/>
    <path class="cls-4" d="M687.9951,156.3828l.9141-12.2017,2.7168.2036-.9141,12.2017-2.7168-.2036ZM688.7734,140.7446c.0742-.9902.8906-1.6924,1.8799-1.6187,1.0127.0762,1.6934.8906,1.6191,1.8809-.0742.9897-.8701,1.7173-1.8828,1.6411-.9893-.0737-1.6904-.9136-1.6162-1.9033Z"/>
    <path class="cls-4" d="M693.1445,152.8555l2.625.1963c-.0059,1.3193,1.0693,2.0947,2.5664,2.207,1.3809.1035,2.1582-.3711,2.2285-1.3149s-.6982-1.1865-1.7324-1.6113l-1.5703-.6504c-1.9766-.8193-3.6738-1.6406-3.5049-3.897.1621-2.1641,1.9258-3.4678,4.8496-3.2485,2.8311.2119,4.6533,1.854,4.7695,4.6401l-2.5791-.1934c-.0352-1.3911-.9766-2.1104-2.3809-2.2153-1.1973-.0894-1.9258.3652-1.9883,1.1943-.0703.9438.9697,1.2764,1.8223,1.6406l1.4375.5938c2.3564.9873,3.751,1.832,3.5879,4.0195-.1689,2.2559-1.9756,3.5098-4.9678,3.2856-3.3389-.25-5.2012-1.9634-5.1631-4.6465Z"/>
    <path class="cls-4" d="M710.0498,158.0342c-2.6475-.1982-3.9766-1.6172-3.7959-4.0352l.4619-6.1694-2.1406-.1602.1729-2.3022,2.1406.1602.3115-4.167,2.7168.2031-.3115,4.167,3.1543.2363-.1729,2.3022-3.1543-.2358-.4482,5.9854c-.0771,1.0361.4092,1.6514,1.4219,1.7271l1.3818.1035-.1729,2.3022-1.5654-.1172Z"/>
    <path class="cls-4" d="M713.8232,158.3164l.9141-12.2012,2.1875.1636.1426,2.418c.9072-1.5986,2.4004-2.3667,4.4258-2.2148l.4609.0347-.1982,2.6475-.4609-.0342c-2.5322-.1895-4.1309,1.0562-4.3027,3.3584l-.4521,6.0317-2.7168-.2036Z"/>
    <path class="cls-4" d="M722.8232,158.9902l.9141-12.2012,2.7178.2031-.9141,12.2017-2.7178-.2036ZM723.6025,143.3525c.0742-.9902.8896-1.6929,1.8799-1.6187,1.0127.0757,1.6924.8901,1.6182,1.8804-.0742.9897-.8691,1.7173-1.8818,1.6416-.9902-.0742-1.6904-.9136-1.6162-1.9033Z"/>
    <path class="cls-4" d="M728.123,153.1597c.2998-4.0059,3.1699-6.1758,6.7158-5.9106,3.3379.25,5.4414,2.4678,5.4434,5.5249l-2.6699-.2002c-.1279-1.6997-1.2432-2.8711-2.9707-3.0005-2.0713-.1553-3.5703,1.3066-3.7568,3.793-.2002,2.6704,1.2041,4.3271,3.2295,4.4785,1.6582.124,2.8877-.8486,3.2959-2.5776l2.6699.2002c-.5576,3.1294-2.8936,4.9458-6.1396,4.7026-3.9824-.2983-6.0928-3.3271-5.8174-7.0103Z"/>
    <path class="cls-4" d="M746.9033,160.7935c-2.6475-.1982-3.9766-1.6172-3.7959-4.0352l.4619-6.1694-2.1406-.1602.1729-2.3022,2.1406.1602.3115-4.167,2.7168.2036-.3115,4.167,3.1543.2358-.1729,2.3022-3.1543-.2358-.4482,5.9854c-.0771,1.0366.4102,1.6514,1.4229,1.7271l1.3809.1035-.1729,2.3022-1.5654-.1172Z"/>
    <path class="cls-4" d="M751.2783,165.728l-2.0459-.8018,3.1328-7.8218,2.1367.8315-3.2236,7.792Z"/>
    <path class="cls-4" d="M761.5977,157.75l.6055-8.0811,2.7158.2031-.5967,7.9653c-.1035,1.3813.8037,2.2603,2.2539,2.3687,1.8643.1396,3.0615-.998,3.2021-2.5615l.5518-7.3672,2.7158.2031-.9141,12.2017-2.1865-.1636-.0742-1.7886c-.8115,1.2593-2.3223,1.9565-4.0264,1.8286-2.9014-.2173-4.4453-2.1616-4.2471-4.8086Z"/>
    <path class="cls-4" d="M774.8926,162.8892l.9141-12.2017,2.1875.1636.0957,1.813c.8545-1.2095,2.4648-1.9922,4.2822-1.856,2.6025.1948,4.1748,2.0728,3.9697,4.812l-.6055,8.0811-2.7158-.2036.5947-7.9424c.1016-1.3589-.7295-2.3237-2.249-2.4375-1.7725-.1323-3.0605.998-3.2031,2.5845l-.5537,7.3901-2.7168-.2031Z"/>
    <path class="cls-4" d="M791.9961,164.1694l-4.1738-12.5825,2.9463.2207,2.8955,9.2686,4.2188-8.7358,2.9463.2207-6.001,11.8208-2.832-.2124Z"/>
    <path class="cls-4" d="M800.876,158.7456c.3008-4.0288,3.1338-6.3174,6.542-6.062,3.4531.2583,5.5742,2.8481,5.3467,6.8135l-.0479.6445-9.1631-.686c.0244,2.1548,1.25,3.7051,3.3223,3.8604,1.4043.105,2.5156-.5063,3.0215-1.6953l2.6475.1982c-.8184,2.5776-2.9863,4.0127-5.8643,3.7974-3.7285-.2793-6.084-3.1411-5.8047-6.8706ZM810.0508,158.0205c-.2148-1.7754-1.2168-2.9155-2.8047-3.0342-1.6123-.1206-2.8887.8486-3.4346,2.5674l6.2393.4668Z"/>
    <path class="cls-4" d="M814.417,165.8481l.9141-12.2017,2.7168.2036-.9141,12.2017-2.7168-.2036ZM815.1953,150.21c.0742-.9902.8906-1.6924,1.8799-1.6182,1.0127.0757,1.6934.8901,1.6191,1.8804-.0742.9897-.8701,1.7173-1.8828,1.6416-.9893-.0742-1.6904-.9136-1.6162-1.9038Z"/>
    <path class="cls-4" d="M819.9424,166.2622l1.293-17.2666,2.7158.2031-1.293,17.2666-2.7158-.2031Z"/>
    <path class="cls-4" d="M825.4658,166.6758l.9141-12.2017,2.7168.2031-.9141,12.2017-2.7168-.2031ZM826.2441,151.0376c.0742-.9902.8906-1.6929,1.8799-1.6187,1.0127.0757,1.6934.8901,1.6191,1.8804-.0742.9897-.8701,1.7173-1.8828,1.6416-.9893-.0742-1.6904-.9136-1.6162-1.9033Z"/>
    <path class="cls-4" d="M830.9453,167.0859l.9141-12.2017,2.1865.1636.0967,1.8135c.8535-1.21,2.4639-1.9922,4.2822-1.8564,2.6016.1948,4.1738,2.0723,3.9688,4.8115l-.6055,8.0811-2.7158-.2031.5947-7.9424c.1016-1.3589-.7285-2.3237-2.249-2.4375-1.7725-.1328-3.0596.998-3.2021,2.5845l-.5537,7.3901-2.7168-.2031Z"/>
    <path class="cls-4" d="M844.1523,168.769l2.7168.2036c-.0859,1.1504,1.0654,2.1631,2.8838,2.2993,2.165.1621,3.3887-1.0425,3.5273-2.8843l.1289-1.7271c-.8711,1.1157-2.2852,1.751-4.0342,1.6201-3.2695-.2451-5.4268-2.9531-5.1543-6.5913.2734-3.6602,2.8125-6.04,6.0586-5.7969,1.9102.1431,3.3857,1.1567,4.0439,2.5718l.3721-1.8706,2.1641.1621-.8857,11.8335c-.2422,3.2231-2.6797,5.1709-6.3867,4.8931-3.4062-.2549-5.6309-2.0889-5.4346-4.7134ZM853.7295,162.3789c.1729-2.3022-1.0889-3.9941-3.0693-4.1421-1.9805-.1484-3.457,1.3384-3.6309,3.6631-.1729,2.3022,1.0654,3.9927,3.0459,4.1411s3.4824-1.3604,3.6543-3.6621Z"/>
    <path class="cls-4" d="M866.6709,169.7607l.8984-11.9946c-.8389,1.0024-2.1006,1.4634-3.7578,1.3394l-.1846-.0137.1982-2.6475.1846.0137c2.3936.1792,3.7344-.7158,3.874-2.5811l.0176-.2305,2.7393.2056-1.207,16.1157-2.7627-.207Z"/>
    <path class="cls-4" d="M872.6641,162.0601c.3838-5.1338,3.3643-8.1519,7.6475-7.8315,3.2686.2451,5.4863,2.4717,5.5322,5.5776l-2.8311-.2119c-.0449-1.5781-1.2529-2.7568-2.9336-2.8828-2.6709-.1997-4.4248,1.8911-4.8076,5.1504l-.0586.7827c.8232-1.7212,2.7441-2.9429,5.1611-2.7617,3.1084.2324,5.1514,2.6309,4.9082,5.877-.252,3.3618-2.8223,5.5303-6.2754,5.2715-4.3516-.3257-6.7158-3.998-6.3428-8.9712ZM882.4736,165.5493c.1621-2.1641-1.3271-3.3174-2.915-3.436-1.6113-.1206-3.3525.8604-3.5107,2.9785-.1592,2.1182,1.3721,3.3208,3.0068,3.4429,1.5898.1191,3.2568-.8213,3.4189-2.9854Z"/>
    <path class="cls-4" d="M892.4971,171.6943l1.207-16.1157,2.9932.2241,7.0801,12.731.9082-12.1328,2.7627.207-1.207,16.1157-2.9932-.2241-7.0791-12.7305-.9092,12.1323-2.7627-.207Z"/>
    <path class="cls-4" d="M909.1221,166.6885c.2979-3.9829,3.1689-6.1528,6.7383-5.8857,3.9365.2949,6.0312,3.23,5.7627,6.8218-.3086,4.1206-3.0928,6.3662-6.7295,6.0938-3.96-.2964-6.0547-3.2544-5.7715-7.0298ZM918.8604,167.4175c.1807-2.417-1.0557-4.1304-3.1738-4.2891s-3.6211,1.3501-3.8018,3.7671c-.2002,2.6699,1.1797,4.3477,3.1826,4.4976,2.1875.1641,3.6104-1.5352,3.793-3.9756Z"/>
    <path class="cls-4" d="M926.75,174.2588l-4.1748-12.5825,2.9473.2207,2.8955,9.2686,4.2188-8.7358,2.9463.2207-6.001,11.8208-2.832-.2124Z"/>
    <path class="cls-4" d="M935.6299,168.835c.3008-4.0288,3.1338-6.3174,6.541-6.062,3.4541.2583,5.5752,2.8481,5.3477,6.8135l-.0479.6445-9.1631-.686c.0234,2.1548,1.25,3.7051,3.3223,3.8604,1.4043.105,2.5156-.5063,3.0205-1.6953l2.6484.1982c-.8184,2.5781-2.9873,4.0127-5.8643,3.7974-3.7295-.2793-6.084-3.1411-5.8047-6.8706ZM944.8047,168.1099c-.2148-1.7754-1.2168-2.9155-2.8057-3.0342-1.6113-.1206-2.8887.8486-3.4336,2.5669l6.2393.4673Z"/>
    <path class="cls-4" d="M949.1709,175.9375l.9141-12.2017,2.1865.1641.0801,1.7192c.8496-1.1406,2.4111-1.9033,4.2295-1.7676,1.75.1313,3.0195,1.106,3.5586,2.5586.7871-1.2373,2.4277-2.1104,4.3613-1.9653,2.5557.1914,4.0537,2.1328,3.8564,4.7573l-.6084,8.1265-2.7393-.2051.5986-7.9888c.1016-1.3579-.6611-2.2949-1.9736-2.3931-1.8643-.1396-3.1309.9927-3.2744,2.6021l-.5537,7.3901-2.7158-.2031.5986-7.9888c.1016-1.3579-.6621-2.2949-1.9746-2.3936-1.8652-.1396-3.1289.9932-3.2734,2.6025l-.5537,7.3901-2.7168-.2036Z"/>
    <path class="cls-4" d="M972.998,175.5454l-.415,2.145-2.1875-.1636,1.293-17.2666,2.7158.2031-.498,6.6533c.9658-1.1309,2.4717-1.7827,4.1982-1.6533,3.2236.2412,5.3066,3.0366,5.0234,6.812-.2871,3.8447-2.7666,6.3447-6.0137,6.1016-1.9326-.1445-3.4717-1.2319-4.1162-2.8315ZM980.3428,172.0669c.1816-2.4175-1.0508-4.1992-3.0312-4.3472-2.0029-.1504-3.5557,1.3999-3.7324,3.7715-.1885,2.5088,1.1064,4.3887,3.1094,4.5391,1.9805.1479,3.4688-1.4771,3.6543-3.9634Z"/>
    <path class="cls-4" d="M984.5918,172.501c.3008-4.0288,3.1348-6.3174,6.542-6.062,3.4531.2583,5.5752,2.8481,5.3467,6.8135l-.0479.6445-9.1621-.686c.0234,2.1548,1.249,3.7051,3.3213,3.8604,1.4043.105,2.5156-.5063,3.0215-1.6953l2.6484.1982c-.8193,2.5776-2.9873,4.0127-5.8652,3.7974-3.7285-.2793-6.084-3.1411-5.8047-6.8706ZM993.7666,171.7759c-.2148-1.7754-1.2158-2.9155-2.8047-3.0342-1.6113-.1206-2.8887.8486-3.4346,2.5669l6.2393.4673Z"/>
    <path class="cls-4" d="M998.1328,179.6035l.9141-12.2017,2.1875.1641.1426,2.418c.9072-1.5986,2.4004-2.3667,4.4258-2.2148l.4609.0342-.1982,2.6479-.4609-.0342c-2.5322-.1899-4.1299,1.0562-4.3018,3.3584l-.4521,6.0317-2.7178-.2036Z"/>
    <path class="cls-4" d="M1015.377,178.3945l7.5752.5669-.1865,2.4863-10.7061-.8013.1143-1.5195c.4619-6.1699,8.6357-5.2568,8.9404-9.332.1123-1.4961-.8477-2.5869-2.4365-2.7061-1.6807-.126-3.0771.9043-3.2793,2.9727l-2.9004-.2173c.5264-3.6182,3.166-5.4814,6.4111-5.2383,3.2236.2412,5.2402,2.3833,5.0205,5.3071-.3975,5.3184-7.6025,4.7788-8.5527,8.4814Z"/>
    <path class="cls-4" d="M1025.5117,173.5039c.375-5.0186,3.1104-8.1709,7.0244-7.8774,3.8223.2861,6.1338,3.7471,5.7529,8.8345-.3779,5.0425-3.1191,8.2627-7.0107,7.9717-3.8447-.2881-6.1514-3.7944-5.7666-8.9287ZM1035.5029,174.252c.2646-3.5449-.9688-5.9292-3.1562-6.0928-2.209-.1655-3.7842,2.0088-4.0488,5.5537-.2695,3.5918.9629,5.999,3.1719,6.1646,2.1875.1636,3.7637-2.0337,4.0332-5.6255Z"/>
    <path class="cls-4" d="M1042.8848,180.4541l7.5742.5669-.1865,2.4863-10.7051-.8013.1143-1.5195c.4619-6.1699,8.6348-5.2573,8.9395-9.332.1123-1.4966-.8477-2.5869-2.4355-2.7061-1.6816-.126-3.0781.9043-3.2803,2.9727l-2.8994-.2173c.5254-3.6182,3.165-5.4814,6.4102-5.2383,3.2236.2412,5.2402,2.3833,5.0205,5.3071-.3975,5.3184-7.6025,4.7788-8.5518,8.4814Z"/>
    <path class="cls-4" d="M1052.7119,178.7358l2.9238.2188c.127,1.6997,1.4043,2.8833,3.1543,3.0142,1.9561.1465,3.2344-1.1465,3.3652-2.8965.1279-1.7041-.918-3.1943-2.8516-3.3389-1.0586-.0796-1.9883.2676-2.8818,1.0806l-3.085-.231,2.1006-8.895,9.5771.7173-.1875,2.5098-7.2979-.5464-1.0576,4.5278c.9473-.9019,2.2646-1.4741,3.8525-1.3555,2.9473.2207,4.8525,2.5859,4.6182,5.7173-.252,3.3608-2.8428,5.5049-6.3652,5.2412-3.3604-.2515-5.6963-2.4634-5.8652-5.7637Z"/>
    <path class="cls-4" d="M1066.7939,183.2627c.0742-.9897.8906-1.6924,1.9043-1.6162,1.0127.0757,1.7158.8916,1.6416,1.8813-.0752,1.0132-.8926,1.7163-1.9053,1.6406-1.0137-.0762-1.7158-.8926-1.6406-1.9058ZM1067.4434,180.1626l.9482-12.6621,2.7393.2051-.9482,12.6621-2.7393-.2051Z"/>
  </g>
</svg>